<svg width="190" height="27" viewBox="0 0 190 27" fill="none" xmlns="http://www.w3.org/2000/svg">
<path d="M9.60607 23.434C6.31436 23.434 4.34382 20.6722 4.34382 16.0855C4.34382 11.4987 6.31436 8.73691 9.60607 8.73691C11.9891 8.73691 13.5471 10.325 14.0474 13.2277L17.6638 12.6398C17.1349 8.29599 13.929 5.35657 9.60607 5.35657C4.22539 5.35657 0.668213 9.64935 0.668213 16.0855C0.668213 22.5828 4.1968 26.8144 9.60607 26.8144C14.076 26.8144 17.2513 23.8157 17.723 19.1433L14.076 18.5554C13.6942 21.7582 12.1034 23.434 9.60607 23.434Z" fill="#231F20"/>
<path d="M23.604 4.91577H20.0754V26.3736H23.604V4.91577Z" fill="#231F20"/>
<path d="M33.808 10.3536C29.338 10.3536 26.2526 13.6768 26.2526 18.584C26.2526 23.4912 29.3401 26.8144 33.808 26.8144C38.2759 26.8144 41.394 23.4892 41.394 18.5902C41.394 13.6911 38.3065 10.3536 33.808 10.3536ZM33.808 23.5811C31.3086 23.5811 29.7791 21.7296 29.7791 18.584C29.7791 15.4384 31.3086 13.587 33.808 13.587C36.3646 13.587 37.8654 15.4976 37.8654 18.584C37.8654 21.6704 36.3646 23.5811 33.808 23.5811V23.5811Z" fill="#231F20"/>
<path d="M53.5664 20.2599C53.5664 22.2583 52.3024 23.5811 50.391 23.5811C48.3041 23.5811 47.2749 22.4645 47.2749 20.2599V10.7946H43.7545V21.0009C43.7545 24.6752 45.8129 26.8205 49.3414 26.8205C51.0751 26.8205 52.723 26.1449 53.6297 24.9977H53.6889V26.3796H57.099V10.7946H53.5664V20.2599Z" fill="#231F20"/>
<path d="M70.9745 11.9418H70.9132C69.8922 10.9211 68.4138 10.3537 66.7373 10.3537C62.6799 10.3537 59.7394 13.8238 59.7394 18.5841C59.7394 23.3443 62.6799 26.8145 66.7087 26.8145C68.5894 26.8145 70.2067 26.0796 71.1481 24.9344H71.2073V26.3633H74.501V4.9137H70.9745V11.9418ZM70.9745 19.819C70.9882 20.3178 70.9014 20.8143 70.7193 21.2789C70.5373 21.7436 70.2636 22.1669 69.9147 22.5237C69.5734 22.8684 69.1655 23.1399 68.7157 23.3217C68.266 23.5035 67.7839 23.5918 67.2989 23.5811C64.7995 23.5811 63.27 21.6705 63.27 18.5841C63.27 15.4977 64.7709 13.587 67.2376 13.587C67.7315 13.575 68.2226 13.6634 68.6813 13.8467C69.14 14.03 69.5566 14.3046 69.906 14.6537C70.2554 15.0027 70.5303 15.4191 70.714 15.8775C70.8976 16.3359 70.9862 16.8268 70.9745 17.3205V19.819Z" fill="#231F20"/>
<path d="M86.0874 23.4341C82.7957 23.4341 80.8251 20.6723 80.8251 16.0856C80.8251 11.4989 82.7957 8.73702 86.0874 8.73702C88.4704 8.73702 90.0285 10.3251 90.5288 13.2278L94.1451 12.6399C93.6163 8.28794 90.4103 5.34851 86.0874 5.34851C80.7067 5.34851 77.1495 9.63517 77.1495 16.0774C77.1495 22.5748 80.6781 26.8063 86.0874 26.8063C90.5573 26.8063 93.7327 23.8077 94.2044 19.1352L90.5573 18.5555C90.1755 21.7583 88.5868 23.4341 86.0874 23.4341Z" fill="#231F20"/>
<path d="M100.085 4.91577H96.5568V26.3736H100.085V4.91577Z" fill="#231F20"/>
<path d="M106.936 4.59326H103.232V8.14915H106.936V4.59326Z" fill="#231F20"/>
<path d="M106.848 10.7946H103.32V26.3735H106.848V10.7946Z" fill="#231F20"/>
<path d="M117.816 10.3536C116.14 10.3536 114.435 11.0885 113.528 12.1765H113.469V10.7946H110.083V26.3735H113.612V16.9388C113.612 14.9404 114.876 13.6462 116.903 13.6462C118.931 13.6462 120.109 14.8526 120.109 16.9388V26.3735H123.638V16.3713C123.638 12.7358 121.351 10.3536 117.816 10.3536Z" fill="#231F20"/>
<path d="M130.342 4.59326H126.638V8.14915H130.342V4.59326Z" fill="#231F20"/>
<path d="M130.254 10.7946H126.725V26.3735H130.254V10.7946Z" fill="#231F20"/>
<path d="M179.521 10.7394C179.205 10.7394 178.897 10.7496 178.592 10.768C176.934 7.50199 173.161 5.55054 168.068 5.55054C167.602 5.55054 167.149 5.56891 166.706 5.60157C164.28 2.20899 159.794 0.21875 153.962 0.21875C146.815 0.21875 141.677 3.21329 139.896 8.1205C140.043 8.1205 140.19 8.10825 140.339 8.10825C141.26 8.1053 142.176 8.22334 143.065 8.45935C143.56 7.4471 144.273 6.55689 145.152 5.85265C147.229 4.17064 150.274 3.28065 153.962 3.28065C157.649 3.28065 160.7 4.17064 162.769 5.85265C162.926 5.98125 163.075 6.11393 163.22 6.24865C164.022 6.99294 164.65 7.90542 165.058 8.92067C166.046 8.70917 167.055 8.60582 168.066 8.61244H168.19C170.845 8.63285 173.009 9.26769 174.476 10.4496C174.802 10.7126 175.098 11.0127 175.356 11.3437C175.988 12.1752 176.363 13.1737 176.434 14.2157C177.421 13.9267 178.444 13.7836 179.472 13.7911H179.519C181.655 13.7911 183.464 14.3035 184.624 15.2364C185.615 16.0406 186.119 17.1592 186.119 18.5575C186.119 19.9558 185.617 21.054 184.628 21.8521C183.477 22.7829 181.665 23.2953 179.523 23.2953H149.01C148.594 24.4378 147.943 25.4808 147.1 26.3572H179.521C185.386 26.3572 189.176 23.2953 189.176 18.5575C189.176 13.8197 185.386 10.7394 179.521 10.7394Z" fill="#231F20"/>
<path d="M143.896 20.4661C143.545 22.4645 142.31 23.5811 140.339 23.5811C137.958 23.5811 136.429 21.6418 136.429 18.584C136.429 15.5262 137.958 13.587 140.341 13.587C142.253 13.587 143.547 14.7056 143.899 16.704L147.284 16.0569C146.696 12.5582 144.017 10.3536 140.341 10.3536C135.959 10.3536 132.902 13.7054 132.902 18.584C132.902 23.4627 135.965 26.8144 140.341 26.8144C144.017 26.8144 146.692 24.6099 147.284 21.1132L143.896 20.4661Z" fill="#231F20"/>
</svg>
