<svg xmlns="http://www.w3.org/2000/svg" viewBox="0 0 923.15 130.29"><defs><style>.cls-1{fill:#231f20;}</style></defs><g id="Layer_2" data-name="Layer 2"><g id="Layer_1-2" data-name="Layer 1"><path class="cls-1" d="M43.77,113.73c-16.12,0-25.77-13.53-25.77-36s9.65-36,25.77-36c11.67,0,19.3,7.78,21.75,22l17.71-2.88C80.64,39.57,64.94,25.17,43.77,25.17,17.42,25.17,0,46.2,0,77.73c0,31.83,17.28,52.56,43.77,52.56,21.89,0,37.44-14.69,39.75-37.58L65.66,89.83C63.79,105.52,56,113.73,43.77,113.73Z"/><rect class="cls-1" x="95.04" y="23.01" width="17.28" height="105.12"/><path class="cls-1" d="M162.29,49.65c-21.89,0-37,16.28-37,40.32s15.12,40.32,37,40.32S199.44,114,199.44,90,184.32,49.65,162.29,49.65Zm0,64.8c-12.24,0-19.73-9.07-19.73-24.48s7.49-24.48,19.73-24.48c12.52,0,19.87,9.36,19.87,24.48S174.81,114.45,162.29,114.45Z"/><path class="cls-1" d="M259.05,98.18c0,9.79-6.19,16.27-15.55,16.27-10.22,0-15.26-5.47-15.26-16.27V51.81H211v50c0,18,10.08,28.51,27.36,28.51,8.49,0,16.56-3.31,21-8.93h.29v6.77h16.7V51.81H259.05Z"/><path class="cls-1" d="M344.3,57.43H344c-5-5-12.24-7.78-20.45-7.78-19.87,0-34.27,17-34.27,40.32s14.4,40.32,34.13,40.32c9.21,0,17.13-3.6,21.74-9.21h.29v7h16.13V23H344.3Zm0,38.59a18.24,18.24,0,0,1-5.19,13.25,17.48,17.48,0,0,1-12.81,5.18c-12.24,0-19.73-9.36-19.73-24.48S313.92,65.49,326,65.49A17.87,17.87,0,0,1,344.3,83.78Z"/><path class="cls-1" d="M418.31,113.73c-16.12,0-25.77-13.53-25.77-36s9.65-36,25.77-36c11.67,0,19.3,7.78,21.75,22l17.71-2.88c-2.59-21.32-18.29-35.72-39.46-35.72-26.35,0-43.77,21-43.77,52.56,0,31.83,17.28,52.56,43.77,52.56,21.89,0,37.44-14.69,39.75-37.58L440.2,89.83C438.33,105.52,430.55,113.73,418.31,113.73Z"/><rect class="cls-1" x="469.58" y="23.01" width="17.28" height="105.12"/><rect class="cls-1" x="502.27" y="21.43" width="18.14" height="17.42"/><rect class="cls-1" x="502.7" y="51.81" width="17.28" height="76.32"/><path class="cls-1" d="M573.69,49.65c-8.21,0-16.56,3.6-21,8.93h-.29V51.81H535.82v76.32H553.1V81.91c0-9.79,6.19-16.13,16.12-16.13s15.7,5.91,15.7,16.13v46.22H602.2v-49C602.2,61.32,591,49.65,573.69,49.65Z"/><rect class="cls-1" x="616.89" y="21.43" width="18.14" height="17.42"/><rect class="cls-1" x="617.32" y="51.81" width="17.28" height="76.32"/><path class="cls-1" d="M875.87,51.54c-1.55,0-3.06.05-4.55.14-8.12-16-26.6-25.56-51.54-25.56-2.28,0-4.5.09-6.67.25C801.23,9.75,779.26,0,750.7,0c-35,0-60.16,14.67-68.88,38.71.72,0,1.44-.06,2.17-.06a51.39,51.39,0,0,1,13.35,1.72A37.38,37.38,0,0,1,707.56,27.6C717.73,19.36,732.64,15,750.7,15s33,4.36,43.13,12.6c.77.63,1.5,1.28,2.21,1.94a36.34,36.34,0,0,1,9,13.09,68.24,68.24,0,0,1,14.73-1.51h.61c13,.1,23.6,3.21,30.78,9a26.61,26.61,0,0,1,4.31,4.38,26.2,26.2,0,0,1,5.28,14.07,51.57,51.57,0,0,1,14.88-2.08h.23c10.46,0,19.32,2.51,25,7.08,4.85,3.94,7.32,9.42,7.32,16.27s-2.46,12.23-7.3,16.14c-5.64,4.56-14.51,7.07-25,7.07H726.45a42.72,42.72,0,0,1-9.35,15H875.87c28.72,0,47.28-15,47.28-38.21S904.59,51.54,875.87,51.54Z"/><path class="cls-1" d="M701.41,99.19c-1.72,9.79-7.77,15.26-17.42,15.26-11.66,0-19.15-9.5-19.15-24.48S672.33,65.49,684,65.49c9.36,0,15.7,5.48,17.42,15.27L718,77.59c-2.88-17.14-16-27.94-34-27.94-21.46,0-36.43,16.42-36.43,40.32s15,40.32,36.43,40.32c18,0,31.1-10.8,34-27.93Z"/></g></g></svg>