<svg width="645" height="92" viewBox="0 0 645 92" fill="none" xmlns="http://www.w3.org/2000/svg">
<g clip-path="url(#clip0)">
<path d="M30.5819 79.9338C19.3189 79.9338 12.5765 70.4839 12.5765 54.7899C12.5765 39.0959 19.3189 29.646 30.5819 29.646C38.7356 29.646 44.0667 35.0798 45.7785 45.0117L58.1524 43.0002C56.3427 28.1373 45.3732 18.0798 30.5819 18.0798C12.1713 18.0798 0 32.768 0 54.7899C0 77.0213 12.0734 91.5 30.5819 91.5C45.8763 91.5 56.741 81.2399 58.355 65.2525L45.8763 63.241C44.5697 74.1996 39.1269 79.9338 30.5819 79.9338Z" fill="#231F20"/>
<path d="M78.4775 16.5712H66.4041V89.9914H78.4775V16.5712Z" fill="#231F20"/>
<path d="M113.391 35.1777C98.0968 35.1777 87.5396 46.5483 87.5396 63.3389C87.5396 80.1294 98.1038 91.5 113.391 91.5C128.679 91.5 139.348 80.1224 139.348 63.3598C139.348 46.5972 128.783 35.1777 113.391 35.1777ZM113.391 80.4367C104.839 80.4367 99.606 74.1018 99.606 63.3389C99.606 52.5759 104.839 46.241 113.391 46.241C122.139 46.241 127.274 52.7784 127.274 63.3389C127.274 73.8993 122.139 80.4367 113.391 80.4367V80.4367Z" fill="#231F20"/>
<path d="M180.997 69.073C180.997 75.9108 176.672 80.4367 170.132 80.4367C162.991 80.4367 159.47 76.6162 159.47 69.073V36.6863H147.425V71.6084C147.425 84.1803 154.467 91.521 166.541 91.521C172.473 91.521 178.111 89.2091 181.213 85.2839H181.416V90.0123H193.084V36.6863H180.997V69.073Z" fill="#231F20"/>
<path d="M240.561 40.6115H240.351C236.858 37.1193 231.799 35.1776 226.063 35.1776C212.18 35.1776 202.118 47.0511 202.118 63.3388C202.118 79.6265 212.18 91.5 225.965 91.5C232.4 91.5 237.933 88.9856 241.154 85.0673H241.357V89.9564H252.627V16.5641H240.561V40.6115ZM240.561 67.5644C240.607 69.2711 240.31 70.9699 239.688 72.5596C239.065 74.1494 238.128 75.5978 236.934 76.8187C235.767 77.9981 234.371 78.9272 232.832 79.5493C231.293 80.1713 229.644 80.4733 227.984 80.4367C219.432 80.4367 214.199 73.8993 214.199 63.3388C214.199 52.7784 219.334 46.2409 227.774 46.2409C229.464 46.1998 231.145 46.5021 232.714 47.1294C234.284 47.7567 235.709 48.6961 236.905 49.8905C238.1 51.0849 239.041 52.5095 239.669 54.0781C240.298 55.6466 240.601 57.3263 240.561 59.0155V67.5644Z" fill="#231F20"/>
<path d="M292.271 79.9338C281.008 79.9338 274.266 70.4839 274.266 54.7899C274.266 39.0959 281.008 29.646 292.271 29.646C300.425 29.646 305.756 35.0798 307.468 45.0117L319.842 43.0002C318.032 28.1094 307.062 18.0518 292.271 18.0518C273.86 18.0518 261.689 32.7191 261.689 54.7619C261.689 76.9933 273.763 91.472 292.271 91.472C307.565 91.472 318.43 81.2119 320.044 65.2246L307.565 63.241C306.259 74.1996 300.823 79.9338 292.271 79.9338Z" fill="#231F20"/>
<path d="M340.166 16.5712H328.093V89.9914H340.166V16.5712Z" fill="#231F20"/>
<path d="M363.608 15.4676H350.933V27.6345H363.608V15.4676Z" fill="#231F20"/>
<path d="M363.307 36.6863H351.234V89.9914H363.307V36.6863Z" fill="#231F20"/>
<path d="M400.834 35.1777C395.098 35.1777 389.264 37.6921 386.161 41.4148H385.959V36.6863H374.375V89.9914H386.448V57.7094C386.448 50.8717 390.773 46.4435 397.711 46.4435C404.649 46.4435 408.68 50.5713 408.68 57.7094V89.9914H420.754V55.7677C420.754 43.3285 412.929 35.1777 400.834 35.1777Z" fill="#231F20"/>
<path d="M443.692 15.4676H431.018V27.6345H443.692V15.4676Z" fill="#231F20"/>
<path d="M443.392 36.6863H431.318V89.9914H443.392V36.6863Z" fill="#231F20"/>
<path d="M611.966 36.4977C610.883 36.4977 609.828 36.5326 608.787 36.5955C603.113 25.4204 590.201 18.7433 572.776 18.7433C571.183 18.7433 569.632 18.8062 568.116 18.9179C559.815 7.30981 544.465 0.5 524.51 0.5C500.056 0.5 482.477 10.7461 476.384 27.5367C476.887 27.5367 477.39 27.4948 477.9 27.4948C481.049 27.4847 484.185 27.8886 487.228 28.6961C488.92 25.2326 491.359 22.1866 494.368 19.777C501.474 14.0218 511.892 10.9766 524.51 10.9766C537.129 10.9766 547.567 14.0218 554.645 19.777C555.183 20.217 555.693 20.671 556.189 21.132C558.934 23.6786 561.081 26.8008 562.477 30.2746C565.859 29.5509 569.31 29.1973 572.769 29.2199H573.195C582.278 29.2898 589.684 31.4619 594.701 35.5059C595.82 36.406 596.83 37.4325 597.712 38.5651C599.876 41.4104 601.158 44.8266 601.401 48.3922C604.777 47.4032 608.28 46.9137 611.798 46.9394H611.959C619.267 46.9394 625.458 48.6925 629.426 51.8844C632.815 54.6362 634.541 58.4637 634.541 63.248C634.541 68.0323 632.822 71.79 629.44 74.5209C625.499 77.7058 619.302 79.4589 611.973 79.4589H507.567C506.144 83.3681 503.918 86.9367 501.034 89.9355H611.966C632.032 89.9355 645 79.4589 645 63.248C645 47.0372 632.032 36.4977 611.966 36.4977Z" fill="#231F20"/>
<path d="M490.071 69.7785C488.87 76.6162 484.643 80.4367 477.9 80.4367C469.753 80.4367 464.52 73.8015 464.52 63.3389C464.52 52.8762 469.753 46.241 477.907 46.241C484.447 46.241 488.877 50.0685 490.078 56.9062L501.663 54.6921C499.651 42.7208 490.484 35.1777 477.907 35.1777C462.913 35.1777 452.454 46.6461 452.454 63.3389C452.454 80.0316 462.934 91.5 477.907 91.5C490.484 91.5 499.637 83.9569 501.663 71.9926L490.071 69.7785Z" fill="#231F20"/>
</g>
<defs>
<clipPath id="clip0">
<rect width="645" height="91" fill="white" transform="translate(0 0.5)"/>
</clipPath>
</defs>
</svg>
