<?xml version="1.0" encoding="utf-8"?>
<!-- Generator: Adobe Illustrator 24.1.0, SVG Export Plug-In . SVG Version: 6.00 Build 0)  -->
<svg version="1.1" id="Layer_1" xmlns="http://www.w3.org/2000/svg" xmlns:xlink="http://www.w3.org/1999/xlink" x="0px" y="0px"
	 viewBox="0 0 188.5 26.6" style="enable-background:new 0 0 188.5 26.6;" xml:space="preserve">
<style type="text/css">
	.st0{fill:#FFFFFF;}
</style>
<g id="CloudClini">
	<path d="M8.9,23.2c-3.3,0-5.3-2.8-5.3-7.3s2-7.4,5.3-7.4c2.4,0,3.9,1.6,4.4,4.5l3.6-0.6c-0.3-4.2-3.8-7.3-8-7.3
		c-5.4,0-9,4.3-9,10.7s3.5,10.7,8.9,10.7c4.5,0,7.6-3,8.1-7.7l-3.6-0.6C13,21.5,11.4,23.2,8.9,23.2z"/>
	<path d="M22.9,4.7h-3.5v21.5h3.5V4.7z"/>
	<path d="M33.1,10.1c-4.5,0-7.6,3.3-7.6,8.2s3.1,8.2,7.6,8.2s7.6-3.3,7.6-8.2S37.6,10.1,33.1,10.1z M33.1,23.4c-2.5,0-4-1.9-4-5
		s1.5-5,4-5c2.5,0,4.1,1.9,4.1,5S35.7,23.4,33.1,23.4z"/>
	<path d="M52.9,20c0.1,1.7-1.1,3.2-2.8,3.3c-0.1,0-0.2,0-0.4,0c-2.1,0-3.1-1.1-3.1-3.3v-9.5h-3.5v10.2c0,3.7,2.1,5.8,5.6,5.8
		c1.6,0.1,3.2-0.6,4.3-1.8H53v1.4h3.4V10.6h-3.5V20z"/>
	<path d="M70.3,11.7L70.3,11.7c-1.2-1.1-2.7-1.6-4.2-1.6c-4.1,0-7,3.5-7,8.2s2.9,8.2,7,8.2c1.7,0.1,3.3-0.6,4.4-1.9h0.1v1.4h3.2V4.7
		h-3.5V11.7z M70.3,19.6c0,1-0.3,2-1.1,2.7c-0.3,0.3-0.7,0.6-1.2,0.8c-0.5,0.2-0.9,0.3-1.4,0.3c-2.5,0-4-1.9-4-5s1.5-5,4-5
		c0.5,0,1,0.1,1.4,0.3c0.9,0.4,1.6,1.1,2,2c0.2,0.5,0.3,1,0.2,1.5V19.6z"/>
	<path d="M85.4,23.2c-3.3,0-5.3-2.8-5.3-7.3s2-7.4,5.3-7.4c2.4,0,3.9,1.6,4.4,4.5l3.6-0.6c-0.3-4.2-3.9-7.4-8.1-7.3
		c-5.4,0-8.9,4.3-8.9,10.7s3.5,10.7,8.9,10.7c4.5,0,7.6-3,8.1-7.7l-3.6-0.6C89.5,21.5,87.9,23.2,85.4,23.2z"/>
	<path d="M99.4,4.7h-3.5v21.5h3.5L99.4,4.7z"/>
	<path d="M106.3,4.4h-3.7v3.6h3.7V4.4z"/>
	<path d="M106.2,10.6h-3.5v15.6h3.5V10.6z"/>
	<path d="M117.2,10.1c-1.6,0-3.2,0.6-4.3,1.8h-0.1v-1.4h-3.4v15.6h3.5v-9.4c-0.1-1.7,1.1-3.2,2.8-3.3c0.2,0,0.3,0,0.5,0
		c1.7-0.1,3.1,1.1,3.2,2.8c0,0.2,0,0.3,0,0.5v9.4h3.5v-10C123,12.5,120.7,10.1,117.2,10.1z"/>
	<path d="M129.7,4.4H126v3.6h3.7V4.4z"/>
	<path d="M129.6,10.6h-3.5v15.6h3.5V10.6z"/>
</g>
<g id="Cloud">
	<rect x="132.2" class="st0" width="56.3" height="26.6"/>
	<path d="M178.9,10.5h-0.9c-1.7-3.3-5.4-5.2-10.5-5.2c-0.5,0-0.9,0-1.4,0C163.6,2,159.1,0,153.3,0c-7.1,0-12.3,3-14.1,7.9h0.4
		c0.9,0,1.8,0.1,2.7,0.3c0.5-1,1.2-1.9,2.1-2.6c2.1-1.7,5.1-2.6,8.8-2.6s6.7,0.9,8.8,2.6c0.2,0.1,0.3,0.3,0.4,0.4
		c0.8,0.7,1.4,1.7,1.8,2.7c1-0.2,2-0.3,3-0.3h0.1c2.2-0.1,4.5,0.5,6.3,1.8c0.3,0.3,0.6,0.6,0.9,0.9c0.6,0.8,1,1.8,1.1,2.9
		c1-0.3,2-0.4,3-0.4h0.1c1.8-0.1,3.6,0.4,5.1,1.4c1,0.8,1.6,2,1.5,3.3c0.1,1.3-0.5,2.5-1.5,3.3c-1.5,1-3.3,1.5-5.1,1.5h-30.5
		c-0.4,1.1-1.1,2.2-1.9,3.1h32.4c5.9,0,9.7-3.1,9.7-7.8S184.7,10.5,178.9,10.5z"/>
	<path d="M143.2,20.2c-0.1,1.8-1.7,3.2-3.6,3.1c-2.4,0-3.9-1.9-3.9-5s1.5-5,3.9-5c1.8-0.1,3.4,1.3,3.6,3.1l3.4-0.6
		c-0.5-3.4-3.5-5.9-6.9-5.7c-4.4,0-7.4,3.4-7.4,8.2s3.1,8.2,7.4,8.2c3.4,0.2,6.5-2.3,6.9-5.7L143.2,20.2z"/>
</g>
</svg>
