<svg width="670" height="123" viewBox="0 0 670 123" fill="none" xmlns="http://www.w3.org/2000/svg">
<rect y="0.357178" width="669.07" height="122.286" fill="white"/>
<path d="M41.0116 95.4234C29.7487 95.4234 23.0063 85.9734 23.0063 70.2794C23.0063 54.5855 29.7487 45.1355 41.0116 45.1355C49.1654 45.1355 54.4964 50.5694 56.2082 60.5013L68.5821 58.4897C66.7725 43.6269 55.803 33.5693 41.0116 33.5693C22.601 33.5693 10.4297 48.2576 10.4297 70.2794C10.4297 92.5109 22.5032 106.99 41.0116 106.99C56.306 106.99 67.1707 96.7294 68.7847 80.7421L56.306 78.7306C54.9995 89.6891 49.5566 95.4234 41.0116 95.4234Z" fill="#231F20"/>
<path d="M88.9071 32.0607H76.8337V105.481H88.9071V32.0607Z" fill="#231F20"/>
<path d="M123.821 50.6671C108.527 50.6671 97.9692 62.0378 97.9692 78.8283C97.9692 95.6188 108.533 106.989 123.821 106.989C139.108 106.989 149.777 95.6119 149.777 78.8492C149.777 62.0866 139.213 50.6671 123.821 50.6671ZM123.821 95.9262C115.269 95.9262 110.036 89.5913 110.036 78.8283C110.036 68.0653 115.269 61.7304 123.821 61.7304C132.569 61.7304 137.704 68.2679 137.704 78.8283C137.704 89.3887 132.569 95.9262 123.821 95.9262Z" fill="#231F20"/>
<path d="M191.427 84.5625C191.427 91.4003 187.102 95.9262 180.562 95.9262C173.421 95.9262 169.9 92.1057 169.9 84.5625V52.1758H157.854V87.0979C157.854 99.6698 164.897 107.01 176.971 107.01C182.903 107.01 188.541 104.699 191.643 100.773H191.846V105.502H203.514V52.1758H191.427V84.5625Z" fill="#231F20"/>
<path d="M250.99 56.1011H250.781C247.287 52.6089 242.229 50.6672 236.492 50.6672C222.609 50.6672 212.548 62.5407 212.548 78.8284C212.548 95.116 222.609 106.99 236.395 106.99C242.83 106.99 248.363 104.475 251.584 100.557H251.787V105.446H263.057V32.0537H250.99V56.1011ZM250.99 83.0539C251.037 84.7607 250.74 86.4594 250.117 88.0492C249.494 89.639 248.558 91.0874 247.364 92.3083C246.196 93.4877 244.801 94.4168 243.262 95.0388C241.723 95.6609 240.073 95.9628 238.414 95.9262C229.862 95.9262 224.629 89.3888 224.629 78.8284C224.629 68.2679 229.764 61.7305 238.204 61.7305C239.894 61.6894 241.574 61.9916 243.144 62.619C244.713 63.2463 246.139 64.1856 247.334 65.38C248.53 66.5745 249.47 67.9991 250.099 69.5676C250.727 71.1361 251.031 72.8159 250.99 74.505V83.0539Z" fill="#231F20"/>
<path d="M302.701 95.4234C291.438 95.4234 284.695 85.9734 284.695 70.2794C284.695 54.5854 291.438 45.1355 302.701 45.1355C310.854 45.1355 316.186 50.5694 317.897 60.5012L330.271 58.4897C328.462 43.5989 317.492 33.5414 302.701 33.5414C284.29 33.5414 272.119 48.2087 272.119 70.2515C272.119 92.4829 284.192 106.962 302.701 106.962C317.995 106.962 328.86 96.7015 330.474 80.7142L317.995 78.7306C316.689 89.6891 311.253 95.4234 302.701 95.4234Z" fill="#231F20"/>
<path d="M350.596 32.0607H338.523V105.481H350.596V32.0607Z" fill="#231F20"/>
<path d="M374.037 30.9572H361.363V43.124H374.037V30.9572Z" fill="#231F20"/>
<path d="M373.737 52.1758H361.664V105.481H373.737V52.1758Z" fill="#231F20"/>
<path d="M411.264 50.6671C405.528 50.6671 399.694 53.1815 396.591 56.9042H396.389V52.1757H384.804V105.481H396.878V73.1989C396.878 66.3611 401.203 61.933 408.141 61.933C415.079 61.933 419.11 66.0608 419.11 73.1989V105.481H431.184V71.2572C431.184 58.8179 423.358 50.6671 411.264 50.6671Z" fill="#231F20"/>
<path d="M454.122 30.9572H441.448V43.124H454.122V30.9572Z" fill="#231F20"/>
<path d="M453.821 52.1758H441.748V105.481H453.821V52.1758Z" fill="#231F20"/>
<path d="M622.395 51.9872C621.312 51.9872 620.257 52.0221 619.216 52.085C613.543 40.9099 600.631 34.2328 583.206 34.2328C581.613 34.2328 580.062 34.2957 578.545 34.4074C570.245 22.7993 554.895 15.9895 534.94 15.9895C510.486 15.9895 492.906 26.2356 486.814 43.0262C487.317 43.0262 487.82 42.9843 488.33 42.9843C491.478 42.9742 494.614 43.3781 497.658 44.1856C499.35 40.7221 501.788 37.6761 504.798 35.2665C511.904 29.5113 522.321 26.4661 534.94 26.4661C547.558 26.4661 557.997 29.5113 565.075 35.2665C565.613 35.7065 566.123 36.1605 566.619 36.6215C569.364 39.1681 571.511 42.2903 572.907 45.7641C576.289 45.0404 579.74 44.6868 583.199 44.7094H583.625C592.708 44.7793 600.114 46.9514 605.131 50.9954C606.249 51.8955 607.26 52.922 608.142 54.0546C610.305 56.8999 611.588 60.3161 611.831 63.8817C615.207 62.8927 618.71 62.4032 622.228 62.4289H622.388C629.697 62.4289 635.887 64.182 639.856 67.3739C643.244 70.1257 644.97 73.9532 644.97 78.7375C644.97 83.5219 643.251 87.2795 639.87 90.0104C635.929 93.1953 629.732 94.9484 622.402 94.9484H517.996C516.573 98.8576 514.348 102.426 511.464 105.425H622.395C642.462 105.425 655.43 94.9484 655.43 78.7375C655.43 62.5267 642.462 51.9872 622.395 51.9872Z" fill="#231F20"/>
<path d="M500.501 85.2679C499.299 92.1057 495.072 95.9262 488.33 95.9262C480.183 95.9262 474.95 89.291 474.95 78.8283C474.95 68.3656 480.183 61.7304 488.337 61.7304C494.877 61.7304 499.306 65.5579 500.508 72.3956L512.092 70.1816C510.08 58.2103 500.913 50.6671 488.337 50.6671C473.343 50.6671 462.883 62.1355 462.883 78.8283C462.883 95.5211 473.364 106.989 488.337 106.989C500.913 106.989 510.066 99.4463 512.092 87.482L500.501 85.2679Z" fill="#231F20"/>
</svg>
